<?xml version="1.0" encoding="utf-8"?>
<!-- Generator: Adobe Illustrator 22.1.0, SVG Export Plug-In . SVG Version: 6.00 Build 0)  -->
<svg version="1.1" id="Layer_2" xmlns="http://www.w3.org/2000/svg" xmlns:xlink="http://www.w3.org/1999/xlink" x="0px" y="0px"
	 viewBox="0 0 780 620" style="enable-background:new 0 0 780 620;" xml:space="preserve">
<style type="text/css">
	.st0{fill:none;stroke:#000000;stroke-width:4;stroke-miterlimit:10;}
	.st1{fill:none;stroke:#000000;stroke-width:3;stroke-miterlimit:10;}
	.st2{fill:#FFFFFF;stroke:#000000;stroke-width:3;stroke-miterlimit:10;}
	.st3{stroke:#000000;stroke-miterlimit:10;}
	.st4{fill:none;stroke:#000000;stroke-miterlimit:10;}
	.st5{stroke:#FFFFFF;stroke-width:3;stroke-miterlimit:10;}
</style>
<path class="st0" d="M286.4,289c0.2,1.3,0.4,2.7,0.7,4.1C287.3,293.3,287,291.6,286.4,289z"/>
<path class="st0" d="M287.3,365.1c0,0-21.3-29.4-35.4-68.5C258.2,323.4,269.8,348.8,287.3,365.1z"/>
<path class="st0" d="M373.7,60.6c2.3-1.7,4.6-3.5,6.9-5.4c-6.8,4.5-13.5,9.2-20.1,14c-0.5,0.6-1,1.1-1.5,1.7
	C364.2,67.6,369.1,64.1,373.7,60.6z"/>
<path class="st0" d="M452.6,454.6L452.6,454.6L452.6,454.6C452.6,454.6,452.6,454.6,452.6,454.6c0.2,0,14.1-9.3,16.1-13.8
	c0.7,0,7.2-13.4,7.2-13.4l1.3,16.1c0,0,23.6,24.6,43.9,26.9c0.2,0.2,30.3,10.9,57.8,22.5c-0.1-34.1-0.8-257-10.7-321
	c2.5-0.9,5-1.8,7.4-2.8c4.1,47.8,12.3,194.7,3.6,324c19.1,8.1,36.9,16.6,42.3,22.2c0.3,0.3,15.4,12.4,16.1,16.9
	c0.7,4.5-529.3,0-529.3,0s36-26,58-31c1,2,24-4,55,0c1,0,4,7.9,70.7-43.6c0.3,0,16.2-17.6,27-77.4c0,0-14.2-19-14.5-51.1l0.3-42.2
	c0,0-8.3-0.4-11.4-6.9c0.4,0.7,0-15.8,0-15.8s-0.6-9-2.3-12.7c-0.1,0-10.8-3.3-4.6,37.7c-1.7-7.9-6-24.8-6.6-29.6
	c0.8-0.4,0.7-9.5,0.7-9.5l-4.2,16.7c0,0-2.7-64.9,3.5-72.4c6.3-7.5-1.5-30.3-22.5-1.7c-12.9,17.4-15.5,62.3-5.5,104.1
	c-16-44.2-22.7-100.7,21.3-140.8c0,0,10.2-7.9,15.3-7.9c-0.1,0,4-4.8,5.2-9.2c0.1,0-3.5,2.2-3.4,2.2"/>
<path class="st0" d="M552.6,165.9c0.5,1.8,2,3.3,4.6,3.6c1.4,0.1,2.9,0.2,4.3,0.2c0.3,0.7,0.7,1.3,1.3,1.7
	c0.8,58.5,3.2,250.4,3.2,250.4l-6.9-218.3c0,0-5.9,47.5-6.9,51.7c0.2,0.5-20.7,85.1-37.3,105.4c0,0-13.1,37.8-35.5,53.8
	c0,0.1-19.7,12.3-25.9,18.2c-0.3,1.3-11.8,15.4-34.8,20c0.3,0-45.8,3.3-61.9-21.6"/>
<path class="st0" d="M356.8,431C356.9,431,356.9,431,356.8,431c0.8,1.4,13.7,23.4,30.2,28.2c0,0,22.3,6.9,36.4,7.2
	c0,0,12.4,0.8,29.2-11.8"/>
<path class="st1" d="M413,260.5c0,0-1.1-8.5-13.3-20.2c-0.5,0,4.8,10.1,4.8,10.1s3.7-3.2-13.9-16.5c-2.1-1.1,7.5,13.3,7.5,13.3
	s-34.6-30.4-71.9-21.3C326.2,226.4,364.5,231.2,413,260.5z"/>
<path class="st1" d="M545.7,276c0,0-1.6-15.8-38.9-12c-1.1,1.2-25,6-46.9,8.7c0,0,0-14.9,8.5-16.5c-1.6-0.5-3.2,9.9-3.2,9.9
	l4.3-13.6v8C469.5,260.5,556.4,236,545.7,276z"/>
<path d="M408.2,356.4l-9-7.5c0,0-5.9-1.6-8,0s1.6,0.9,5.3,3.4C400.2,354.8,408.2,356.4,408.2,356.4z"/>
<path d="M421,363.8c0,0,7.5-8.5,11.2-7.5s9.1,2.6,8.5,3.7S434.3,359,421,363.8z"/>
<path class="st2" d="M399.4,276c0,0-12.5-24-29.8-23.5c0.8,0-16.8,2.7-20.5,5.3c0,0,5.3,12.3,20.5,13.3
	C369.3,271.7,398.5,269.2,399.4,276z"/>
<path class="st2" d="M457.5,289.2c0,0,21-15.7,32.2-13.1c0,0.5,19.7,3.7,24,13.8c0,0.5-2.1,6.9-17.6,6.9
	C496.1,296.7,470.9,290.8,457.5,289.2z"/>
<path class="st3" d="M290.1,143.3c0,0,280.8,35.4,285.6,30.5c4.8-4.9,4.8-4.9,4.8-4.9l-16.4-58.4L316,92.5L290.1,143.3z"/>
<polygon class="st3" points="300.7,116.7 292.8,90.2 286.5,121.5 272.5,130.9 296.7,127 "/>
<ellipse class="st3" cx="484.3" cy="285.4" rx="11.2" ry="8.6"/>
<ellipse class="st3" cx="369.6" cy="261.7" rx="11.2" ry="8.6"/>
<path class="st4" d="M356,376.4c0,0,34,15.6,57.1,18.2c0.2,0.3,31.3,3.1,42.8,1.4c0,0.3-37-0.3-38.7-1.6
	C417.1,395.1,367.3,388.2,356,376.4z"/>
<path class="st4" d="M449.3,398.4c0,0-19.8,13.7-28.3,14.9c-0.3,0.3-21.6,2.4-38-9.7c0,0,11.6,6.5,14.9,6.8
	c-0.1,0,12.6,3.6,17.9,2.9C415.7,413.2,429.8,414.2,449.3,398.4z"/>
<path class="st4" d="M377.3,382.2c0,0,20.8-2.1,26.6,0c0,0.3,5.9,2.1,7.7,3.2c0.3,0.3,6.4-0.4,14.9,1.1c-0.3-0.1,19.3,7.3,22.7,9.6
	c-0.3,0-21.7-9.2-22.9-9.2c0,0-13-1.5-14.7-1c-0.1-0.1-10.2-4.4-11.9-4.1C399.9,381.9,380.4,381.1,377.3,382.2z"/>
<path class="st5" d="M314.9,88.5c0,0-38.5,47.7-24.8,54.8c0,0,264.6,35.4,270.9,31c0-0.4,12.8,3,15.5-1.2c0.2-0.2,5.4-1.8,4.1-5.3
	c-0.2,0.3-8.4-66.7-16.6-59.9c0,0.1-20.2-76-90.8-89.9c0.3,0-110.2,2.4-152,66.9L314.9,88.5z"/>
<polygon class="st5" points="567.6,112 326.2,89.5 314.9,88.5 "/>
<path class="st5" d="M307.9,145.5l23.6-55.3L307.9,145.5z"/>
<path class="st5" d="M349.1,92.5v57.6V92.5z"/>
<path class="st5" d="M380.8,94.3l-11.9,59.3L380.8,94.3z"/>
<path class="st5" d="M422.2,98l-30.3,58.4L422.2,98z"/>
<path class="st5" d="M434.2,99.5l23.7,64.9L434.2,99.5z"/>
<path class="st5" d="M469.2,103.2l9.7,63.4L469.2,103.2z"/>
<path class="st5" d="M515.6,107.5l-18.8,61.1L515.6,107.5z"/>
<path class="st5" d="M541.2,108.9l19.8,65.4L541.2,108.9z"/>
<path class="st5" d="M663.9,213.8"/>
<path class="st0" d="M574.1,173.9"/>
<line x1="320.6" y1="144.6" x2="287.3" y2="142.9"/>
</svg>
